<?xml version="1.0" encoding="UTF-8" standalone="no"?>
<!-- Created with Inkscape (http://www.inkscape.org/) -->

<svg
   width="48"
   height="48"
   viewBox="0 0 12.69984 12.69984"
   version="1.1"
   id="svg5"
   inkscape:version="1.1 (c68e22c387, 2021-05-23)"
   sodipodi:docname="Mango_icon.svg"
   xmlns:inkscape="http://www.inkscape.org/namespaces/inkscape"
   xmlns:sodipodi="http://sodipodi.sourceforge.net/DTD/sodipodi-0.dtd"
   xmlns="http://www.w3.org/2000/svg"
   xmlns:svg="http://www.w3.org/2000/svg">
  <sodipodi:namedview
     id="namedview7"
     pagecolor="#ffffff"
     bordercolor="#666666"
     borderopacity="1.0"
     inkscape:pageshadow="2"
     inkscape:pageopacity="0.0"
     inkscape:pagecheckerboard="0"
     inkscape:document-units="px"
     showgrid="false"
     inkscape:zoom="8.3856039"
     inkscape:cx="14.727621"
     inkscape:cy="34.821583"
     inkscape:window-width="1920"
     inkscape:window-height="1018"
     inkscape:window-x="-6"
     inkscape:window-y="-6"
     inkscape:window-maximized="1"
     inkscape:current-layer="layer1"
     units="px" />
  <defs
     id="defs2" />
  <g
     inkscape:label="레이어 1"
     inkscape:groupmode="layer"
     id="layer1">
    <path
       id="path266"
       style="fill:#ffa200;fill-opacity:1;stroke:#000000;stroke-width:0;stroke-linecap:butt;stroke-linejoin:miter;stroke-miterlimit:4;stroke-dasharray:none;stroke-opacity:1"
       d="M 8.3708418,1.87461 C 6.0665627,1.120098 4.7458297,2.081784 4.7458297,2.081784 1.3238896,4.2364429 1.5267435,5.2561588 1.3298655,7.4686979 1.2049421,8.8725967 0.71147168,10.349669 0.71147168,10.349669 c 0,0 -0.96712589,2.61832 3.29062572,1.807307 C 8.6641908,11.230717 10.534248,9.2698398 10.866654,7.370215 11.163102,5.6760812 11.14431,2.7827517 8.3708418,1.87461 Z m 2.3857992,4.0446033 c -0.0027,0.00183 -0.0048,0.00312 -0.0028,0.00193 0.001,-6.454e-4 0.0019,-0.00128 0.0028,-0.00193 z"
       sodipodi:nodetypes="sssccsscsc" />
    <path
       style="fill:#ffc000;fill-opacity:1;stroke:none;stroke-width:0.0229083px;stroke-linecap:butt;stroke-linejoin:miter;stroke-opacity:1"
       d="M 7.9996036,1.6893397 C 12.288006,3.5518726 11.285203,7.7549785 7.1698723,9.9748894 4.2695524,11.539393 0.90177268,12.099364 0.79816088,10.777105 0.70153958,9.5440478 1.199552,9.6516049 1.2973576,6.6676734 1.3621293,4.6914611 3.0558871,0.82225918 7.9996036,1.6893397 Z"
       id="path6033"
       sodipodi:nodetypes="csssc" />
    <path
       style="fill:#fff2b6;fill-opacity:1;stroke:none;stroke-width:0.0229083px;stroke-linecap:butt;stroke-linejoin:miter;stroke-opacity:1"
       d="M 6.5626537,2.1035282 C 5.2633185,1.1154221 1.8293646,3.5033516 1.875769,6.0353714 1.922171,8.5673926 5.1283686,6.2542503 6.2378217,4.2856019 7.2587285,2.4740752 6.5626537,2.1035282 6.5626537,2.1035282 Z"
       id="path6196"
       sodipodi:nodetypes="cssc" />
    <path
       style="fill:none;stroke:#000000;stroke-width:0.0229083px;stroke-linecap:butt;stroke-linejoin:miter;stroke-opacity:1"
       d="m 7.0267063,2.206458 c 0,0 0,0 0,0 z"
       id="path6198" />
    <path
       style="fill:#502d16;stroke:none;stroke-width:0.0229083px;stroke-linecap:butt;stroke-linejoin:miter;stroke-opacity:1"
       d="M 8.3940445,1.9157802 C 9.6021737,1.1977671 9.6021737,0.7242996 9.6021737,0.7242996 c 0,0 0.348188,-0.17166691 0.342236,0.10292792 C 9.9386397,1.0948392 9.2218984,1.8738519 8.8596967,2.1241166 8.5087214,2.3666235 8.4288934,1.9570046 8.3940445,1.9157802 Z"
       id="path7477"
       sodipodi:nodetypes="ccssc" />
    <path
       style="fill:#008040;fill-opacity:1;stroke:none;stroke-width:0.0229083px;stroke-linecap:butt;stroke-linejoin:miter;stroke-opacity:1"
       d="m 9.0453163,1.9594319 c 0,0 -1.3225379,1.1939611 -0.069612,2.7996324 1.2529297,1.6056719 2.9467067,1.7703556 2.9467067,1.7703556 0,0 1.786585,-5.1875537 -2.8770996,-4.569988 z"
       id="path7479" />
    <path
       style="fill:#a05a2c;stroke:none;stroke-width:0.0229083px;stroke-linecap:butt;stroke-linejoin:miter;stroke-opacity:1"
       d="m 8.3708418,1.87461 c 0,0 0.088202,0.1890322 0.1060144,0.2134816 0.1251149,0.1717366 1.4578825,-0.9126673 1.4153485,-1.35864583 -0.01204,-0.12618375 -0.290031,-0.005133 -0.290031,-0.005133 0,0 0.0026,0.42219013 -1.2313319,1.15031033 -1.2339237,0.7281203 0,0 0,0 z"
       id="path7481"
       sodipodi:nodetypes="csscsc" />
    <path
       style="fill:#004020;fill-opacity:1;stroke:none;stroke-width:0.0229083px;stroke-linecap:butt;stroke-linejoin:miter;stroke-opacity:1"
       d="m 9.0453163,1.9594319 c 0,0 2.5754677,1.996797 2.8770987,4.569988 0.301631,2.5731924 0,0 0,0 0,0 -0.672871,-2.3055793 -2.8770987,-4.569988 -2.2042305,-2.26440863 0,0 0,0 z"
       id="path10456" />
    <path
       style="fill:#004020;fill-opacity:1;stroke:none;stroke-width:0.0229083px;stroke-linecap:butt;stroke-linejoin:miter;stroke-opacity:1"
       d="m 10.449062,3.6371537 c -0.4872513,0.8542985 -0.35369,1.6336141 -0.35369,1.6336141 0,0 -0.3539833,-0.3470197 0.214477,-1.808592 0.64143,-1.6491896 0,0 0,0 z"
       id="path10689"
       sodipodi:nodetypes="ccscc" />
    <path
       style="fill:#004020;fill-opacity:1;stroke:none;stroke-width:0.0229083px;stroke-linecap:butt;stroke-linejoin:miter;stroke-opacity:1"
       d="m 11.052325,4.2958896 c 0.708015,-0.1204976 1.121337,0.2512905 1.121337,0.2512905 0,0 -0.542595,-0.2893202 -1.063331,-0.1380702 -0.306724,0.089091 0.0464,0.010294 0.0464,0.010294 z"
       id="path11350"
       sodipodi:nodetypes="ccscc" />
    <path
       style="fill:#004020;fill-opacity:1;stroke:none;stroke-width:0.0229083px;stroke-linecap:butt;stroke-linejoin:miter;stroke-opacity:1"
       d="M 9.8331327,2.6991645 C 11.317929,2.5390467 11.670669,2.913868 11.670669,2.913868 c 0,0 -0.857478,-0.3119435 -1.7596053,-0.069144 -0.06143,0.016537 0.03282,0 0.03282,0 z"
       id="path12235"
       sodipodi:nodetypes="ccscc" />
  </g>
</svg>
